<svg id="Capa_1" data-name="Capa 1" xmlns="http://www.w3.org/2000/svg" viewBox="0 0 1080 306.38"><defs><style>.cls-1{fill:#cb3034;}.cls-2{fill:#a02a33;}.cls-3{fill:#e59f30;}.cls-11,.cls-12,.cls-4,.cls-5,.cls-9{fill:none;}.cls-11,.cls-12,.cls-4,.cls-5{stroke:#000;}.cls-11,.cls-12,.cls-4{stroke-linejoin:round;}.cls-11,.cls-4,.cls-5{stroke-width:1.85px;}.cls-5{stroke-miterlimit:10;}.cls-6{fill:#66181e;}.cls-7{fill:#e0922e;}.cls-8{fill:#1a1a1a;}.cls-10{fill:#d6505a;}.cls-11,.cls-12{stroke-linecap:round;}.cls-12{stroke-width:1.41px;}</style></defs><title>logo 1</title><path d="M342.21,229.17V165.71H292.69v63.46H265.25V83.4h27.44V142h49.52V83.4h27.44V229.17Z"/><path d="M422.73,115.86v73.83q0,9.26,3.46,14t10.48,4.74q6.81,0,13.11-5.64a98.6,98.6,0,0,0,13.33-15.22V115.86h27.21V229.17H466.79l-.67-16.73a95.44,95.44,0,0,1-7.25,7.92,41.1,41.1,0,0,1-8,6.08,39,39,0,0,1-9.36,3.9,42.27,42.27,0,0,1-11.21,1.4,37.8,37.8,0,0,1-15.23-2.85,28.85,28.85,0,0,1-10.87-8.08,35.09,35.09,0,0,1-6.52-12.55,57.19,57.19,0,0,1-2.18-16.34V115.86Z"/><path d="M623.26,170.51q0,15.62-4.4,27a51.51,51.51,0,0,1-12.27,18.9A49.23,49.23,0,0,1,588,227.55a72.19,72.19,0,0,1-23.31,3.63,136.14,136.14,0,0,1-23-1.84,148.31,148.31,0,0,1-20.35-5V71.58h27.21v37l-1.12,22.3a50.21,50.21,0,0,1,14.33-12.71q8.21-4.8,19.69-4.8a38.4,38.4,0,0,1,17.84,4,36.44,36.44,0,0,1,13.11,11.43,54.74,54.74,0,0,1,8.08,18A92.63,92.63,0,0,1,623.26,170.51Zm-28.55,1.11a81.61,81.61,0,0,0-1.34-16,34.81,34.81,0,0,0-3.85-10.82,16.12,16.12,0,0,0-6.13-6.19,17.26,17.26,0,0,0-8.31-1.95q-6.92,0-13.21,5.58a95.56,95.56,0,0,0-13.33,15.17V207a41.74,41.74,0,0,0,8,2,58.27,58.27,0,0,0,9.65.78A25.31,25.31,0,0,0,587,199.5a35.37,35.37,0,0,0,5.74-12A58.13,58.13,0,0,0,594.71,171.62Z"/><path class="cls-1" d="M751.08,154.45a106,106,0,0,1-4.19,30.78,60.66,60.66,0,0,1-13,23.59,58.16,58.16,0,0,1-22.69,15.05q-13.83,5.31-33.13,5.3H641V83.4h43.16q16.73,0,29.27,4.18a50.72,50.72,0,0,1,20.92,12.89,55,55,0,0,1,12.54,22.08Q751.08,135.93,751.08,154.45Zm-29.45,1.78a106,106,0,0,0-1.89-21.08,41.43,41.43,0,0,0-6.42-15.67,28.55,28.55,0,0,0-12.1-9.76q-7.59-3.34-18.85-3.34H668.43V206.2h12.05q20.17,0,30.67-12T721.63,156.23Z"/><path class="cls-1" d="M874.54,171.62a75.55,75.55,0,0,1-3.79,24.48,54.33,54.33,0,0,1-10.93,19,48.46,48.46,0,0,1-17.51,12.27,60.7,60.7,0,0,1-23.65,4.35,64.6,64.6,0,0,1-22.53-3.68,43.82,43.82,0,0,1-16.84-11,48.59,48.59,0,0,1-10.59-18.29q-3.69-11-3.68-25.6a74.31,74.31,0,0,1,3.84-24.53,53.3,53.3,0,0,1,11-18.85,48.89,48.89,0,0,1,17.56-12.1,60.8,60.8,0,0,1,23.42-4.3,64,64,0,0,1,22.64,3.74,44,44,0,0,1,16.84,11.1,48.5,48.5,0,0,1,10.54,18.23A79.45,79.45,0,0,1,874.54,171.62Zm-28.33.67q0-17.62-6.64-26.49T820,136.94a24.81,24.81,0,0,0-12.16,2.78,23.66,23.66,0,0,0-8.25,7.64,34.09,34.09,0,0,0-4.74,11.32,61.19,61.19,0,0,0-1.51,13.83q0,17.75,7.14,26.72t19.52,9a24.37,24.37,0,0,0,11.82-2.73,22.09,22.09,0,0,0,8.14-7.58,36.64,36.64,0,0,0,4.69-11.44A61.2,61.2,0,0,0,846.21,172.29Z"/><path class="cls-1" d="M983.05,135.71a24.16,24.16,0,0,1,4.41,8.2,30.58,30.58,0,0,1,1.28,8.75,40,40,0,0,1-3.29,16.73,33.31,33.31,0,0,1-9.25,12.16A40.71,40.71,0,0,1,961.92,189a63,63,0,0,1-18.35,2.51,48.14,48.14,0,0,1-10.93-1.17,26.81,26.81,0,0,1-7.58-2.73,20.59,20.59,0,0,0-3.23,4.18,10,10,0,0,0-1.34,5.19,7.85,7.85,0,0,0,.89,3.57,9.58,9.58,0,0,0,2.62,3.18,14.48,14.48,0,0,0,4.13,2.28,17.24,17.24,0,0,0,5.41,1l26.88,1a65.92,65.92,0,0,1,16.33,2.29,39.44,39.44,0,0,1,12.55,5.85,26.67,26.67,0,0,1,8.09,9.2,26.19,26.19,0,0,1,2.84,12.33,32.51,32.51,0,0,1-3.57,14.94A34.06,34.06,0,0,1,985.9,264.8,56.6,56.6,0,0,1,968,273a92.17,92.17,0,0,1-24.87,3,111.06,111.06,0,0,1-23.59-2.17,52,52,0,0,1-16.17-6.08,26,26,0,0,1-9.32-9.31,24.11,24.11,0,0,1-3-11.88,25.11,25.11,0,0,1,1-7.25,24.45,24.45,0,0,1,3-6.41,34.45,34.45,0,0,1,5-6,59.45,59.45,0,0,1,7.13-5.8,21.83,21.83,0,0,1-8.3-8,20.51,20.51,0,0,1-2.85-10.48,24.2,24.2,0,0,1,1-7.09,34.75,34.75,0,0,1,2.62-6.3,43.89,43.89,0,0,1,3.73-5.8c1.41-1.85,2.9-3.68,4.46-5.46A34.7,34.7,0,0,1,901,168c-1.83-3.91-2.74-8.79-2.74-14.67a40.26,40.26,0,0,1,3.4-16.9,35.46,35.46,0,0,1,9.43-12.49,41.2,41.2,0,0,1,14.33-7.69,59.89,59.89,0,0,1,18.12-2.62,88.21,88.21,0,0,1,9.65.5,41.6,41.6,0,0,1,8.42,1.73h39.26v19.85ZM918.93,244.23q0,6.57,6.63,9.7t18.68,3.12a49.88,49.88,0,0,0,13-1.45,27.73,27.73,0,0,0,8.64-3.79,13.87,13.87,0,0,0,4.8-5.46,15.33,15.33,0,0,0,1.45-6.47,8.88,8.88,0,0,0-1.4-5.08,11.06,11.06,0,0,0-3.9-3.45,21,21,0,0,0-5.91-2.12,48.3,48.3,0,0,0-7.53-.95l-24-.45a41.31,41.31,0,0,0-5.3,4.24,20.16,20.16,0,0,0-3.23,4,12.2,12.2,0,0,0-1.56,4A21.43,21.43,0,0,0,918.93,244.23Zm4.57-90.9q0,9,5.3,14.33t14.77,5.3a21.36,21.36,0,0,0,8.76-1.67,17.88,17.88,0,0,0,6.19-4.46,18.73,18.73,0,0,0,3.68-6.47,24.16,24.16,0,0,0,1.23-7.7q0-9.48-5.3-14.78t-14.78-5.29a21.15,21.15,0,0,0-8.75,1.67,17.22,17.22,0,0,0-6.19,4.52,18.77,18.77,0,0,0-3.68,6.63A25.53,25.53,0,0,0,923.5,153.33Z"/><path class="cls-1" d="M216.92,235.36a22.37,22.37,0,0,1-3.6,12.35,22.14,22.14,0,0,1-3,3.7,22.48,22.48,0,0,1-29.62,1.91,23,23,0,0,1-2.17-1.91l-27.4-26.24a27.7,27.7,0,0,1-7.34-18.65c0-.51-.05-1-.05-1.54V90.15a21.84,21.84,0,0,1,3.69-12.21,20.66,20.66,0,0,1,1.66-2.19,22,22,0,0,1,16.68-7.64h.89c.59,0,1.17,0,1.75.07a22,22,0,0,1,20.29,22V198l21.62,21.63A22.39,22.39,0,0,1,216.92,235.36Z"/><path class="cls-2" d="M179.47,74.27s7.64,4,7.64,18.37c0,9.16.72,17.83.37,39.52-1.07,65.29-2.47,65.29,15.39,81.3s12.32,25.87,12.32,25.87-1.9-6.62-4.52-10.55c-8.77-13.16-17-14.4-25-30.1-4.55-8.89-2.67-38.67-2.45-66.77C183.41,103.56,182,76.92,179.47,74.27Z"/><path class="cls-3" d="M184.7,255.65c-1.07,3.09-15.32,23.45-38.8,4.93-8.07-6.37-29.49-28.65-29.49-28.65a24.73,24.73,0,0,1-6.48-17.73c0-.53-.06-1.08-.06-1.63V90.86c0-12.91,9.75-23.36,21.76-23.36h.88a21.12,21.12,0,0,1,16.59,8.25,21.92,21.92,0,0,0-5.35,14.4V205c0,.51,0,1,.05,1.54a22.42,22.42,0,0,0,6.57,16.72S160.38,236.25,184.7,255.65Z"/><path class="cls-3" d="M231.58,241.25a22.45,22.45,0,0,1-18.26,6.46,22.48,22.48,0,0,0-3-28.09L188.71,198V90.15a22,22,0,0,0-20.29-22A22,22,0,0,1,187,58h.89a22,22,0,0,1,22,22V187.83l21.62,21.62A22.49,22.49,0,0,1,231.58,241.25Z"/><polygon class="cls-4" points="161.92 120.16 141.28 121.85 141.28 96.14 161.92 97.98 161.92 120.16"/><polygon class="cls-4" points="190.86 118.31 174.28 119.54 174.28 98.44 190.86 99.21 190.86 118.31"/><path class="cls-5" d="M144.67,153.41S106.3,171.77,164.2,202"/><line class="cls-5" x1="161.92" y1="109.68" x2="174.35" y2="109.35"/><path class="cls-6" d="M156.68,73a15,15,0,0,1,4.18-1.5,20.68,20.68,0,0,1,8.86.08c.73.14,1.44.39,2.15.59s1.38.54,2.06.83a40.9,40.9,0,0,0-4.3-1,26.3,26.3,0,0,0-4.34-.37,25.39,25.39,0,0,0-4.35.3A22.61,22.61,0,0,0,156.68,73Z"/><path class="cls-6" d="M161.3,75.19a7.4,7.4,0,0,1,2.95-4.29,6.71,6.71,0,0,1,2.43-1.11,7.28,7.28,0,0,1,2.63-.14,13.32,13.32,0,0,0-2.49.6,8.36,8.36,0,0,0-2.22,1.15,9.8,9.8,0,0,0-1.84,1.69A13.09,13.09,0,0,0,161.3,75.19Z"/><path class="cls-6" d="M160.21,69.29a10.73,10.73,0,0,1,4.45,1.46,10.9,10.9,0,0,1,1.91,1.4,8.36,8.36,0,0,1,1.5,1.81c-.6-.5-1.18-1-1.8-1.44a21.54,21.54,0,0,0-1.92-1.23A32.27,32.27,0,0,0,160.21,69.29Z"/><path class="cls-7" d="M112.64,87.51s-1.77,84.59,0,112.71c.64,10.12-1.17,17.17,3.39,24.33,8.62,13.55,27.1,29.91,27.1,23.4,0-3.14-25.25-18.47-25.25-48C117.88,113.69,112.64,87.51,112.64,87.51Z"/><path class="cls-7" d="M191.79,61.34s16.26,3.51,16.26,30c0,26.18-2.1,86.41,1.6,93.8s-5.55,6.78-6.78-28.95,2.47-68.36-3.69-80.06S182.55,61.34,191.79,61.34Z"/><polygon points="216.73 174.97 216.73 205.15 176.7 213.77 176.7 176.82 216.73 174.97"/><polygon class="cls-8" points="176.7 198.03 176.7 213.77 158.22 202.07 176.7 198.03"/><path class="cls-5" d="M188.4,150.33s25.87,9.86,14.17,33.88"/><path class="cls-9" d="M217,235l-.12.34"/><line class="cls-9" x1="147.44" y1="77.35" x2="147.44" y2="77.94"/><path class="cls-10" d="M186.24,252.88s19.1,8.62,26.49-9.85C212.73,243,206.57,252.88,186.24,252.88Z"/><ellipse cx="179.91" cy="109.66" rx="1.53" ry="3.05"/><ellipse cx="156.34" cy="109.66" rx="1.96" ry="3.93"/><line class="cls-11" x1="141.29" y1="108.35" x2="136.36" y2="114.87"/><line class="cls-12" x1="191.06" y1="106.84" x2="189.17" y2="110.52"/></svg>